<svg width="34" height="38" viewBox="0 0 34 38" fill="none" xmlns="http://www.w3.org/2000/svg">
<path d="M32.6252 0.25H1.375C0.943594 0.25 0.59375 0.599844 0.59375 1.03125V36.9689C0.59375 37.4003 0.943594 37.7502 1.375 37.7502H32.6252C33.0566 37.7502 33.4064 37.4003 33.4064 36.9689V1.03125C33.4064 0.599766 33.0566 0.25 32.6252 0.25ZM31.8439 1.8125V3.375H14.6563C14.2249 3.375 13.8751 3.72484 13.8751 4.15625C13.8751 4.58773 14.2249 4.9375 14.6563 4.9375H31.8439V6.5H2.15625V1.8125H31.8439ZM2.15625 36.1877V8.0625H31.8439V36.1877H2.15625Z" fill="#573DB8"/>
<path d="M29.5002 9.625H4.5C4.06859 9.625 3.71875 9.97484 3.71875 10.4062V33.8439C3.71875 34.2753 4.06859 34.6252 4.5 34.6252H29.5002C29.9316 34.6252 30.2814 34.2753 30.2814 33.8439V10.4062C30.2814 9.97484 29.9316 9.625 29.5002 9.625ZM28.7189 33.0626H5.28125V11.1875H28.7189V33.0626Z" fill="#573DB8"/>
<path d="M6.0625 11.9688H7.625V13.5312H6.0625V11.9688Z" fill="#573DB8"/>
<path d="M8.40625 11.9688H25.5938V13.5312H8.40625V11.9688Z" fill="#573DB8"/>
<path d="M8.40625 30.7188H25.5938V32.2812H8.40625V30.7188Z" fill="#573DB8"/>
<path d="M3.71875 3.375H5.28125V4.9375H3.71875V3.375Z" fill="#573DB8"/>
<path d="M6.0625 3.375H7.625V4.9375H6.0625V3.375Z" fill="#573DB8"/>
<path d="M8.40625 3.375H9.96875V4.9375H8.40625V3.375Z" fill="#573DB8"/>
<path d="M6.0625 30.7188H7.625V32.2812H6.0625V30.7188Z" fill="#573DB8"/>
<path d="M6.0625 14.3125H7.625V29.9375H6.0625V14.3125Z" fill="#573DB8"/>
<path d="M26.375 11.9688H27.9375V13.5312H26.375V11.9688Z" fill="#573DB8"/>
<path d="M26.375 30.7188H27.9375V32.2812H26.375V30.7188Z" fill="#573DB8"/>
<path d="M26.375 14.3125H27.9375V29.9375H26.375V14.3125Z" fill="#573DB8"/>
<path d="M9.96875 22.125C9.96875 26.0019 13.1231 29.1562 17 29.1562C20.8769 29.1562 24.0313 26.0019 24.0313 22.125C24.0313 18.2477 20.8769 15.0938 17 15.0938C13.1231 15.0938 9.96875 18.2477 9.96875 22.125ZM22.4688 22.125C22.4688 25.1406 20.0155 27.5938 17 27.5938C13.9845 27.5938 11.5312 25.1406 11.5312 22.125C11.5312 19.1094 13.9845 16.6562 17 16.6562C20.0155 16.6562 22.4688 19.1094 22.4688 22.125Z" fill="#573DB8"/>
<path d="M14.2399 22.2196C13.9347 21.915 13.4404 21.915 13.1351 22.2196C12.83 22.5248 12.83 23.0196 13.1351 23.3248L15.3446 25.5343C15.6497 25.8393 16.1445 25.8393 16.4497 25.5343L20.869 21.1149C21.1742 20.8098 21.1742 20.315 20.869 20.0101C20.5643 19.705 20.0695 19.705 19.7643 20.0101L15.8972 23.8771L14.2399 22.2196Z" fill="#573DB8"/>
</svg>
