<svg width="34" height="39" viewBox="0 0 34 39" fill="none" xmlns="http://www.w3.org/2000/svg">
<path d="M32.7589 0.109375L0.89808 0.109375C0.458243 0.109375 0.101562 0.466056 0.101563 0.905893L0.101563 37.5459C0.101563 37.9857 0.458243 38.3424 0.89808 38.3424L32.7589 38.3424C33.1988 38.3424 33.5555 37.9857 33.5555 37.5459V0.905893C33.5555 0.465976 33.1988 0.109375 32.7589 0.109375ZM31.9624 1.70241V3.29545L14.439 3.29545C13.9991 3.29545 13.6424 3.65213 13.6424 4.09196C13.6424 4.53188 13.9991 4.88848 14.439 4.88848L31.9624 4.88848V6.48152L1.6946 6.48152V1.70241L31.9624 1.70241ZM1.6946 36.7493L1.6946 8.07455L31.9624 8.07455V36.7493L1.6946 36.7493Z" fill="white"/>
<path d="M29.5743 9.66797L4.08558 9.66797C3.64574 9.66797 3.28906 10.0246 3.28906 10.4645L3.28906 34.3602C3.28906 34.8 3.64574 35.1567 4.08558 35.1567H29.5743C30.0141 35.1567 30.3708 34.8 30.3708 34.3602V10.4645C30.3708 10.0246 30.0141 9.66797 29.5743 9.66797ZM28.7778 33.5636H4.8821V11.261L28.7778 11.261V33.5636Z" fill="white"/>
<path d="M5.67188 12.0547H7.26491V13.6477H5.67188V12.0547Z" fill="white"/>
<path d="M8.07031 12.0586L25.5938 12.0586V13.6516L8.07031 13.6516V12.0586Z" fill="white"/>
<path d="M8.0625 31.1758L25.586 31.1758V32.7688H8.0625V31.1758Z" fill="white"/>
<path d="M3.28906 3.29688H4.8821V4.88991H3.28906V3.29688Z" fill="white"/>
<path d="M5.67188 3.29688H7.26491V4.88991H5.67188V3.29688Z" fill="white"/>
<path d="M8.07031 3.29297H9.66335V4.886H8.07031V3.29297Z" fill="white"/>
<path d="M5.67969 31.1758H7.27272V32.7688H5.67969V31.1758Z" fill="white"/>
<path d="M5.67969 14.4453H7.27272V30.3757H5.67969V14.4453Z" fill="white"/>
<path d="M26.3906 12.0547H27.9837V13.6477H26.3906V12.0547Z" fill="white"/>
<path d="M26.3906 31.1719H27.9837V32.7649H26.3906V31.1719Z" fill="white"/>
<path d="M26.3828 14.4453H27.9758V30.3757H26.3828V14.4453Z" fill="white"/>
<path d="M9.65625 22.4108C9.65625 26.3635 12.8723 29.5795 16.8249 29.5795C20.7775 29.5795 23.9936 26.3635 23.9936 22.4108C23.9936 18.4578 20.7775 15.2422 16.8249 15.2422C12.8723 15.2422 9.65625 18.4578 9.65625 22.4108ZM22.4005 22.4108C22.4005 25.4854 19.8994 27.9865 16.8249 27.9865C13.7504 27.9865 11.2493 25.4854 11.2493 22.4108C11.2493 19.3363 13.7505 16.8352 16.8249 16.8352C19.8994 16.8352 22.4005 19.3363 22.4005 22.4108Z" fill="white"/>
<path d="M14.0159 22.5056C13.7048 22.1949 13.2008 22.1949 12.8896 22.5056C12.5785 22.8167 12.5785 23.3211 12.8896 23.6323L15.1422 25.885C15.4533 26.196 15.9578 26.196 16.269 25.885L20.7746 21.3792C21.0858 21.0682 21.0858 20.5638 20.7746 20.2529C20.4639 19.9418 19.9595 19.9418 19.6483 20.2529L15.7057 24.1954L14.0159 22.5056Z" fill="white"/>
</svg>
