<svg width="36" height="34" viewBox="0 0 36 34" fill="none" xmlns="http://www.w3.org/2000/svg">
<path d="M16.4375 11.1406H18.7812C19.2127 11.1406 19.5625 10.7908 19.5625 10.3594C19.5625 9.92797 19.2127 9.57812 18.7812 9.57812H16.4375C16.0061 9.57812 15.6562 9.92797 15.6562 10.3594C15.6562 10.7908 16.0061 11.1406 16.4375 11.1406Z" fill="#573DB8"/>
<path d="M32.0627 32.2345H28.9377V10.2812C28.9377 8.60117 27.5709 7.23438 25.8908 7.23438H9.32812C7.64813 7.23438 6.28125 8.60117 6.28125 10.2812V32.2345H3.15625C2.72484 32.2345 2.375 32.5844 2.375 33.0158C2.375 33.4472 2.72484 33.797 3.15625 33.797H32.0627C32.4941 33.797 32.8439 33.4472 32.8439 33.0158C32.8439 32.5844 32.4941 32.2345 32.0627 32.2345ZM7.84383 10.2812C7.84383 9.4625 8.50984 8.79688 9.32812 8.79688H25.8908C26.7091 8.79688 27.3752 9.46258 27.3752 10.2812V32.2345H25.8127V12.7032C25.8127 12.2718 25.4627 11.922 25.0314 11.922H10.1876C9.75617 11.922 9.40633 12.2718 9.40633 12.7032V32.2345H7.84383V10.2812ZM24.2501 32.2345H10.9688V13.4845H24.2501V32.2345Z" fill="#573DB8"/>
<path d="M13.3125 2.54688C13.744 2.54688 14.0938 2.1971 14.0938 1.76562C14.0938 1.33415 13.744 0.984375 13.3125 0.984375C12.881 0.984375 12.5312 1.33415 12.5312 1.76562C12.5312 2.1971 12.881 2.54688 13.3125 2.54688Z" fill="#573DB8"/>
<path d="M21.9062 4.10938C22.3377 4.10938 22.6875 3.7596 22.6875 3.32812C22.6875 2.89665 22.3377 2.54688 21.9062 2.54688C21.4748 2.54688 21.125 2.89665 21.125 3.32812C21.125 3.7596 21.4748 4.10938 21.9062 4.10938Z" fill="#573DB8"/>
<path d="M32.8438 15.0469C33.2752 15.0469 33.625 14.6971 33.625 14.2656C33.625 13.8342 33.2752 13.4844 32.8438 13.4844C32.4123 13.4844 32.0625 13.8342 32.0625 14.2656C32.0625 14.6971 32.4123 15.0469 32.8438 15.0469Z" fill="#573DB8"/>
<path d="M2.375 20.5156C2.80647 20.5156 3.15625 20.1658 3.15625 19.7344C3.15625 19.3029 2.80647 18.9531 2.375 18.9531C1.94353 18.9531 1.59375 19.3029 1.59375 19.7344C1.59375 20.1658 1.94353 20.5156 2.375 20.5156Z" fill="#573DB8"/>
<path d="M13.3125 15.8281H14.875V17.3906H13.3125V15.8281Z" fill="#573DB8"/>
<path d="M15.6562 15.8281H17.2188V17.3906H15.6562V15.8281Z" fill="#573DB8"/>
<path d="M18 15.8281H19.5625V17.3906H18V15.8281Z" fill="#573DB8"/>
<path d="M20.3438 15.8281H21.9062V17.3906H20.3438V15.8281Z" fill="#573DB8"/>
<path d="M13.3125 18.1719H14.875V19.7344H13.3125V18.1719Z" fill="#573DB8"/>
<path d="M15.6562 18.1719H17.2188V19.7344H15.6562V18.1719Z" fill="#573DB8"/>
<path d="M18 18.1719H19.5625V19.7344H18V18.1719Z" fill="#573DB8"/>
<path d="M20.3438 18.1719H21.9062V19.7344H20.3438V18.1719Z" fill="#573DB8"/>
<path d="M13.3125 20.5156H14.875V22.0781H13.3125V20.5156Z" fill="#573DB8"/>
<path d="M15.6562 20.5156H17.2188V22.0781H15.6562V20.5156Z" fill="#573DB8"/>
<path d="M18 20.5156H19.5625V22.0781H18V20.5156Z" fill="#573DB8"/>
<path d="M20.3438 20.5156H21.9062V22.0781H20.3438V20.5156Z" fill="#573DB8"/>
<path d="M13.3125 22.8594H14.875V24.4219H13.3125V22.8594Z" fill="#573DB8"/>
<path d="M15.6562 22.8594H17.2188V24.4219H15.6562V22.8594Z" fill="#573DB8"/>
<path d="M18 22.8594H19.5625V24.4219H18V22.8594Z" fill="#573DB8"/>
<path d="M20.3438 22.8594H21.9062V24.4219H20.3438V22.8594Z" fill="#573DB8"/>
<path d="M13.3125 25.2031H14.875V26.7656H13.3125V25.2031Z" fill="#573DB8"/>
<path d="M15.6562 25.2031H17.2188V26.7656H15.6562V25.2031Z" fill="#573DB8"/>
<path d="M18 25.2031H19.5625V26.7656H18V25.2031Z" fill="#573DB8"/>
<path d="M20.3438 25.2031H21.9062V26.7656H20.3438V25.2031Z" fill="#573DB8"/>
<path d="M4.71875 10.3594C4.71875 9.06695 3.66742 8.01562 2.375 8.01562C1.08258 8.01562 0.03125 9.06695 0.03125 10.3594C0.03125 11.6514 1.08258 12.7031 2.375 12.7031C3.66742 12.7031 4.71875 11.6514 4.71875 10.3594ZM1.59375 10.3594C1.59375 9.92867 1.94391 9.57812 2.375 9.57812C2.80609 9.57812 3.15625 9.92867 3.15625 10.3594C3.15625 10.7901 2.80609 11.1406 2.375 11.1406C1.94391 11.1406 1.59375 10.7901 1.59375 10.3594Z" fill="#573DB8"/>
<path d="M33.625 21.2969C32.3326 21.2969 31.2812 22.3482 31.2812 23.6406C31.2812 24.933 32.3326 25.9844 33.625 25.9844C34.9174 25.9844 35.9688 24.933 35.9688 23.6406C35.9688 22.3482 34.9174 21.2969 33.625 21.2969ZM33.625 24.4219C33.1943 24.4219 32.8438 24.0714 32.8438 23.6406C32.8438 23.2098 33.1943 22.8594 33.625 22.8594C34.0557 22.8594 34.4062 23.2098 34.4062 23.6406C34.4062 24.0714 34.0557 24.4219 33.625 24.4219Z" fill="#573DB8"/>
<path d="M30.8906 5.67188C32.3982 5.67188 33.625 4.44508 33.625 2.9375C33.625 1.42953 32.3982 0.203125 30.8906 0.203125C29.383 0.203125 28.1562 1.42953 28.1562 2.9375C28.1562 4.44508 29.383 5.67188 30.8906 5.67188ZM30.8906 1.76562C31.5368 1.76562 32.0625 2.29133 32.0625 2.9375C32.0625 3.58367 31.5368 4.10938 30.8906 4.10938C30.2445 4.10938 29.7188 3.58367 29.7188 2.9375C29.7188 2.29125 30.2445 1.76562 30.8906 1.76562Z" fill="#573DB8"/>
</svg>
