<svg width="38" height="35" viewBox="0 0 38 35" fill="none" xmlns="http://www.w3.org/2000/svg">
<path d="M17.3512 11.2532H19.7408C20.1806 11.2532 20.5373 10.8965 20.5373 10.4567C20.5373 10.0168 20.1806 9.66016 19.7408 9.66016H17.3512C16.9114 9.66016 16.5547 10.0168 16.5547 10.4567C16.5547 10.8965 16.9114 11.2532 17.3512 11.2532Z" fill="white"/>
<path d="M33.2835 32.7622H30.0974V10.3798C30.0974 8.66695 28.7039 7.27344 26.991 7.27344L10.1046 7.27344C8.3918 7.27344 6.99821 8.66695 6.99821 10.3798V32.7622H3.81214C3.37231 32.7622 3.01563 33.1188 3.01563 33.5587C3.01563 33.9985 3.37231 34.3552 3.81214 34.3552H33.2835C33.7233 34.3552 34.08 33.9985 34.08 33.5587C34.08 33.1188 33.7233 32.7622 33.2835 32.7622ZM8.59133 10.3798C8.59133 9.54511 9.27036 8.86647 10.1046 8.86647L26.991 8.86647C27.8253 8.86647 28.5043 9.54519 28.5043 10.3798V32.7622H26.9113V12.8491C26.9113 12.4093 26.5546 12.0526 26.1148 12.0526L10.9809 12.0526C10.541 12.0526 10.1844 12.4093 10.1844 12.8491V32.7622H8.59133V10.3798ZM25.3182 32.7622H11.7774V13.6457L25.3182 13.6457V32.7622Z" fill="white"/>
<path d="M14.1715 2.49147C14.6114 2.49147 14.968 2.13486 14.968 1.69496C14.968 1.25505 14.6114 0.898437 14.1715 0.898437C13.7316 0.898438 13.375 1.25505 13.375 1.69496C13.375 2.13486 13.7316 2.49147 14.1715 2.49147Z" fill="white"/>
<path d="M22.9371 4.08913C23.377 4.08913 23.7337 3.73252 23.7337 3.29261C23.7337 2.85271 23.377 2.49609 22.9371 2.49609C22.4972 2.49609 22.1406 2.85271 22.1406 3.29261C22.1406 3.73252 22.4972 4.08913 22.9371 4.08913Z" fill="white"/>
<path d="M34.0856 15.2376C34.5255 15.2376 34.8821 14.881 34.8821 14.441C34.8821 14.0011 34.5255 13.6445 34.0856 13.6445C33.6457 13.6445 33.2891 14.0011 33.2891 14.441C33.2891 14.881 33.6457 15.2376 34.0856 15.2376Z" fill="white"/>
<path d="M3.01527 20.8118C3.45517 20.8118 3.81179 20.4552 3.81179 20.0153C3.81179 19.5754 3.45517 19.2188 3.01527 19.2188C2.57536 19.2188 2.21875 19.5754 2.21875 20.0153C2.21875 20.4552 2.57536 20.8118 3.01527 20.8118Z" fill="white"/>
<path d="M14.1641 16.0312H15.7571V17.6243H14.1641V16.0312Z" fill="white"/>
<path d="M16.5625 16.0352H18.1555V17.6282H16.5625V16.0352Z" fill="white"/>
<path d="M18.9453 16.0352H20.5383V17.6282H18.9453V16.0352Z" fill="white"/>
<path d="M21.3438 16.0352H22.9368V17.6282H21.3438V16.0352Z" fill="white"/>
<path d="M14.1719 18.4219H15.7649V20.0149H14.1719V18.4219Z" fill="white"/>
<path d="M16.5547 18.4258H18.1477V20.0188H16.5547V18.4258Z" fill="white"/>
<path d="M18.9531 18.4258H20.5462V20.0188H18.9531V18.4258Z" fill="white"/>
<path d="M21.3359 18.4219H22.929V20.0149H21.3359V18.4219Z" fill="white"/>
<path d="M14.1719 20.8125H15.7649V22.4055H14.1719V20.8125Z" fill="white"/>
<path d="M16.5625 20.8125H18.1555V22.4055H16.5625V20.8125Z" fill="white"/>
<path d="M18.9531 20.8164H20.5462V22.4094H18.9531V20.8164Z" fill="white"/>
<path d="M21.3359 20.8125H22.929V22.4055H21.3359V20.8125Z" fill="white"/>
<path d="M14.1641 23.2031H15.7571V24.7962H14.1641V23.2031Z" fill="white"/>
<path d="M16.5625 23.2031H18.1555V24.7962H16.5625V23.2031Z" fill="white"/>
<path d="M18.9453 23.2031H20.5383V24.7962H18.9453V23.2031Z" fill="white"/>
<path d="M21.3438 23.2031H22.9368V24.7962H21.3438V23.2031Z" fill="white"/>
<path d="M14.1719 25.5898H15.7649V27.1829H14.1719V25.5898Z" fill="white"/>
<path d="M16.5547 25.5938H18.1477V27.1868H16.5547V25.5938Z" fill="white"/>
<path d="M18.9531 25.5938H20.5462V27.1868H18.9531V25.5938Z" fill="white"/>
<path d="M21.3359 25.5898H22.929V27.1829H21.3359V25.5898Z" fill="white"/>
<path d="M5.40411 10.4599C5.40411 9.14219 4.33223 8.07031 3.01455 8.07031C1.69687 8.07031 0.625 9.14219 0.625 10.4599C0.625 11.7771 1.69687 12.8494 3.01455 12.8494C4.33223 12.8494 5.40411 11.7771 5.40411 10.4599ZM2.21804 10.4599C2.21804 10.0207 2.57503 9.66335 3.01455 9.66335C3.45407 9.66335 3.81107 10.0207 3.81107 10.4599C3.81107 10.899 3.45407 11.2564 3.01455 11.2564C2.57503 11.2564 2.21804 10.899 2.21804 10.4599Z" fill="white"/>
<path d="M34.8817 21.6094C33.5641 21.6094 32.4922 22.6812 32.4922 23.9989C32.4922 25.3166 33.5641 26.3885 34.8817 26.3885C36.1994 26.3885 37.2713 25.3166 37.2713 23.9989C37.2713 22.6812 36.1994 21.6094 34.8817 21.6094ZM34.8817 24.7954C34.4426 24.7954 34.0852 24.4381 34.0852 23.9989C34.0852 23.5597 34.4426 23.2024 34.8817 23.2024C35.3209 23.2024 35.6783 23.5597 35.6783 23.9989C35.6783 24.4381 35.3209 24.7954 34.8817 24.7954Z" fill="white"/>
<path d="M32.0925 5.68109C33.6295 5.68109 34.8803 4.43032 34.8803 2.89328C34.8803 1.35584 33.6295 0.105469 32.0925 0.105469C30.5555 0.105469 29.3047 1.35584 29.3047 2.89328C29.3047 4.43032 30.5555 5.68109 32.0925 5.68109ZM32.0925 1.6985C32.7513 1.6985 33.2873 2.23448 33.2873 2.89328C33.2873 3.55208 32.7513 4.08806 32.0925 4.08806C31.4337 4.08806 30.8977 3.55208 30.8977 2.89328C30.8977 2.2344 31.4337 1.6985 32.0925 1.6985Z" fill="white"/>
</svg>
