<svg width="34" height="38" viewBox="0 0 34 38" fill="none" xmlns="http://www.w3.org/2000/svg">
<path d="M3.71875 33.4531H5.28125V35.0157H3.71875V33.4531Z" fill="#573DB8"/>
<path d="M6.0625 31.1094H7.625V32.6719H6.0625V31.1094Z" fill="#573DB8"/>
<path d="M8.40625 31.1094H9.96875V32.6719H8.40625V31.1094Z" fill="#573DB8"/>
<path d="M10.75 31.1094H12.3125V32.6719H10.75V31.1094Z" fill="#573DB8"/>
<path d="M6.84375 33.4531H8.40625V35.0157H6.84375V33.4531Z" fill="#573DB8"/>
<path d="M15.4375 31.1094H17V32.6719H15.4375V31.1094Z" fill="#573DB8"/>
<path d="M13.0938 33.4531H14.6562V35.0157H13.0938V33.4531Z" fill="#573DB8"/>
<path d="M15.4375 33.4531H17V35.0157H15.4375V33.4531Z" fill="#573DB8"/>
<path d="M17.7812 31.1094H19.3438V32.6719H17.7812V31.1094Z" fill="#573DB8"/>
<path d="M17.7812 33.4531H19.3438V35.0157H17.7812V33.4531Z" fill="#573DB8"/>
<path d="M20.125 31.1094H21.6875V32.6719H20.125V31.1094Z" fill="#573DB8"/>
<path d="M22.4688 31.1094H24.0313V32.6719H22.4688V31.1094Z" fill="#573DB8"/>
<path d="M20.125 33.4531H21.6875V35.0157H20.125V33.4531Z" fill="#573DB8"/>
<path d="M25.5938 31.8906C25.5938 32.3221 25.9436 32.6719 26.375 32.6719H30.2812C30.7127 32.6719 31.0625 32.3221 31.0625 31.8906C31.0625 31.4593 30.7127 31.1094 30.2812 31.1094H26.375C25.9436 31.1094 25.5938 31.4593 25.5938 31.8906Z" fill="#573DB8"/>
<path d="M30.2812 33.4531H26.375C25.9436 33.4531 25.5938 33.803 25.5938 34.2345C25.5938 34.6659 25.9436 35.0157 26.375 35.0157H30.2812C30.7127 35.0157 31.0625 34.6659 31.0625 34.2345C31.0625 33.803 30.7127 33.4531 30.2812 33.4531Z" fill="#573DB8"/>
<path d="M3.71875 24.0781H5.28125V25.6406H3.71875V24.0781Z" fill="#573DB8"/>
<path d="M6.0625 21.7344H7.625V23.2969H6.0625V21.7344Z" fill="#573DB8"/>
<path d="M8.40625 21.7344H9.96875V23.2969H8.40625V21.7344Z" fill="#573DB8"/>
<path d="M10.75 21.7344H12.3125V23.2969H10.75V21.7344Z" fill="#573DB8"/>
<path d="M10.75 24.0781H12.3125V25.6406H10.75V24.0781Z" fill="#573DB8"/>
<path d="M13.0938 21.7344H14.6562V23.2969H13.0938V21.7344Z" fill="#573DB8"/>
<path d="M13.0938 24.0781H14.6562V25.6406H13.0938V24.0781Z" fill="#573DB8"/>
<path d="M15.4375 24.0781H17V25.6406H15.4375V24.0781Z" fill="#573DB8"/>
<path d="M17.7812 21.7344H19.3438V23.2969H17.7812V21.7344Z" fill="#573DB8"/>
<path d="M17.7812 24.0781H19.3438V25.6406H17.7812V24.0781Z" fill="#573DB8"/>
<path d="M20.125 21.7344H21.6875V23.2969H20.125V21.7344Z" fill="#573DB8"/>
<path d="M22.4688 21.7344H24.0313V23.2969H22.4688V21.7344Z" fill="#573DB8"/>
<path d="M22.4688 24.0781H24.0313V25.6406H22.4688V24.0781Z" fill="#573DB8"/>
<path d="M25.5938 22.5156C25.5938 22.947 25.9436 23.2969 26.375 23.2969H30.2812C30.7127 23.2969 31.0625 22.947 31.0625 22.5156C31.0625 22.0843 30.7127 21.7344 30.2812 21.7344H26.375C25.9436 21.7344 25.5938 22.0843 25.5938 22.5156Z" fill="#573DB8"/>
<path d="M30.2812 24.0781H26.375C25.9436 24.0781 25.5938 24.428 25.5938 24.8594C25.5938 25.2907 25.9436 25.6406 26.375 25.6406H30.2812C30.7127 25.6406 31.0625 25.2907 31.0625 24.8594C31.0625 24.428 30.7127 24.0781 30.2812 24.0781Z" fill="#573DB8"/>
<path d="M22.4688 12.3594H24.0313V13.9219H22.4688V12.3594Z" fill="#573DB8"/>
<path d="M20.125 14.7031H21.6875V16.2656H20.125V14.7031Z" fill="#573DB8"/>
<path d="M17.7812 14.7031H19.3438V16.2656H17.7812V14.7031Z" fill="#573DB8"/>
<path d="M15.4375 14.7031H17V16.2656H15.4375V14.7031Z" fill="#573DB8"/>
<path d="M15.4375 12.3594H17V13.9219H15.4375V12.3594Z" fill="#573DB8"/>
<path d="M13.0938 14.7031H14.6562V16.2656H13.0938V14.7031Z" fill="#573DB8"/>
<path d="M13.0938 12.3594H14.6562V13.9219H13.0938V12.3594Z" fill="#573DB8"/>
<path d="M10.75 12.3594H12.3125V13.9219H10.75V12.3594Z" fill="#573DB8"/>
<path d="M8.40625 14.7031H9.96875V16.2656H8.40625V14.7031Z" fill="#573DB8"/>
<path d="M8.40625 12.3594H9.96875V13.9219H8.40625V12.3594Z" fill="#573DB8"/>
<path d="M6.0625 14.7031H7.625V16.2656H6.0625V14.7031Z" fill="#573DB8"/>
<path d="M3.71875 14.7031H5.28125V16.2656H3.71875V14.7031Z" fill="#573DB8"/>
<path d="M3.71875 12.3594H5.28125V13.9219H3.71875V12.3594Z" fill="#573DB8"/>
<path d="M25.5938 13.1406C25.5938 13.572 25.9436 13.9219 26.375 13.9219H30.2812C30.7127 13.9219 31.0625 13.572 31.0625 13.1406C31.0625 12.7092 30.7127 12.3594 30.2812 12.3594H26.375C25.9436 12.3594 25.5938 12.7092 25.5938 13.1406Z" fill="#573DB8"/>
<path d="M30.2812 14.7031H26.375C25.9436 14.7031 25.5938 15.053 25.5938 15.4844C25.5938 15.9158 25.9436 16.2656 26.375 16.2656H30.2812C30.7127 16.2656 31.0625 15.9158 31.0625 15.4844C31.0625 15.053 30.7127 14.7031 30.2812 14.7031Z" fill="#573DB8"/>
<path d="M32.6252 9.23438C33.0566 9.23438 33.4064 8.88453 33.4064 8.45313V1.42188C33.4064 0.990469 33.0566 0.640625 32.6252 0.640625H1.375C0.943594 0.640625 0.59375 0.990469 0.59375 1.42188V8.45313C0.59375 8.88453 0.943594 9.23438 1.375 9.23438H4.5V10.0156H1.375C0.943594 10.0156 0.59375 10.3655 0.59375 10.7969V17.8281C0.59375 18.2595 0.943594 18.6094 1.375 18.6094H4.5V19.3906H1.375C0.943594 19.3906 0.59375 19.7405 0.59375 20.1719V27.2031C0.59375 27.6345 0.943594 27.9844 1.375 27.9844H4.5V28.7656H1.375C0.943594 28.7656 0.59375 29.1155 0.59375 29.5469V36.5782C0.59375 37.0096 0.943594 37.3595 1.375 37.3595H32.6252C33.0566 37.3595 33.4064 37.0096 33.4064 36.5782V29.547C33.4064 29.1156 33.0566 28.7657 32.6252 28.7657H29.5002V27.9845H32.6252C33.0566 27.9845 33.4064 27.6345 33.4064 27.2032V20.172C33.4064 19.7406 33.0566 19.3907 32.6252 19.3907H29.5002V18.6095H32.6252C33.0566 18.6095 33.4064 18.2596 33.4064 17.8282V10.797C33.4064 10.3655 33.0566 10.0157 32.6252 10.0157H29.5002V9.23445L32.6252 9.23438ZM2.15625 2.20313H31.8439V7.67188H2.15625V2.20313ZM31.8439 35.797H2.15625V30.3282H31.8439V35.797ZM27.9377 28.7657H6.0625V27.9845H27.9377V28.7657ZM31.8439 26.422H2.15625V20.9532H31.8439V26.422ZM27.9377 19.3907H6.0625V18.6095H27.9377V19.3907ZM31.8439 17.047H2.15625V11.5782H31.8439V17.047ZM27.9377 10.0156H6.0625V9.23438H27.9377V10.0156Z" fill="#573DB8"/>
<path d="M3.71875 5.32812H5.28125V6.89062H3.71875V5.32812Z" fill="#573DB8"/>
<path d="M6.0625 2.98438H7.625V4.54688H6.0625V2.98438Z" fill="#573DB8"/>
<path d="M8.40625 2.98438H9.96875V4.54688H8.40625V2.98438Z" fill="#573DB8"/>
<path d="M10.75 2.98438H12.3125V4.54688H10.75V2.98438Z" fill="#573DB8"/>
<path d="M10.75 5.32812H12.3125V6.89062H10.75V5.32812Z" fill="#573DB8"/>
<path d="M13.0938 2.98438H14.6562V4.54688H13.0938V2.98438Z" fill="#573DB8"/>
<path d="M13.0938 5.32812H14.6562V6.89062H13.0938V5.32812Z" fill="#573DB8"/>
<path d="M15.4375 5.32812H17V6.89062H15.4375V5.32812Z" fill="#573DB8"/>
<path d="M17.7812 2.98438H19.3438V4.54688H17.7812V2.98438Z" fill="#573DB8"/>
<path d="M17.7812 5.32812H19.3438V6.89062H17.7812V5.32812Z" fill="#573DB8"/>
<path d="M20.125 2.98438H21.6875V4.54688H20.125V2.98438Z" fill="#573DB8"/>
<path d="M22.4688 2.98438H24.0313V4.54688H22.4688V2.98438Z" fill="#573DB8"/>
<path d="M22.4688 5.32812H24.0313V6.89062H22.4688V5.32812Z" fill="#573DB8"/>
<path d="M26.375 4.54688H30.2812C30.7127 4.54688 31.0625 4.19703 31.0625 3.76562C31.0625 3.33422 30.7127 2.98438 30.2812 2.98438H26.375C25.9436 2.98438 25.5938 3.33422 25.5938 3.76562C25.5938 4.19703 25.9436 4.54688 26.375 4.54688Z" fill="#573DB8"/>
<path d="M26.375 6.89062H30.2812C30.7127 6.89062 31.0625 6.54078 31.0625 6.10938C31.0625 5.67797 30.7127 5.32812 30.2812 5.32812H26.375C25.9436 5.32812 25.5938 5.67797 25.5938 6.10938C25.5938 6.54078 25.9436 6.89062 26.375 6.89062Z" fill="#573DB8"/>
</svg>
