<svg width="38" height="38" viewBox="0 0 38 38" fill="none" xmlns="http://www.w3.org/2000/svg">
<path d="M19.3906 34.2344C19.8221 34.2344 20.1719 33.8846 20.1719 33.4531C20.1719 33.0217 19.8221 32.6719 19.3906 32.6719C18.9592 32.6719 18.6094 33.0217 18.6094 33.4531C18.6094 33.8846 18.9592 34.2344 19.3906 34.2344Z" fill="#573DB8"/>
<path d="M27.2031 30.3281C27.6346 30.3281 27.9844 29.9783 27.9844 29.5469C27.9844 29.1154 27.6346 28.7656 27.2031 28.7656C26.7717 28.7656 26.4219 29.1154 26.4219 29.5469C26.4219 29.9783 26.7717 30.3281 27.2031 30.3281Z" fill="#573DB8"/>
<path d="M32.6719 27.9844C33.1033 27.9844 33.4531 27.6346 33.4531 27.2031C33.4531 26.7717 33.1033 26.4219 32.6719 26.4219C32.2404 26.4219 31.8906 26.7717 31.8906 27.2031C31.8906 27.6346 32.2404 27.9844 32.6719 27.9844Z" fill="#573DB8"/>
<path d="M12.3594 27.9844C12.7908 27.9844 13.1406 27.6346 13.1406 27.2031C13.1406 26.7717 12.7908 26.4219 12.3594 26.4219C11.9279 26.4219 11.5781 26.7717 11.5781 27.2031C11.5781 27.6346 11.9279 27.9844 12.3594 27.9844Z" fill="#573DB8"/>
<path d="M10.0156 27.9844C10.4471 27.9844 10.7969 27.6346 10.7969 27.2031C10.7969 26.7717 10.4471 26.4219 10.0156 26.4219C9.58415 26.4219 9.23438 26.7717 9.23438 27.2031C9.23438 27.6346 9.58415 27.9844 10.0156 27.9844Z" fill="#573DB8"/>
<path d="M5.32812 30.3281C5.7596 30.3281 6.10938 29.9783 6.10938 29.5469C6.10938 29.1154 5.7596 28.7656 5.32812 28.7656C4.89665 28.7656 4.54688 29.1154 4.54688 29.5469C4.54688 29.9783 4.89665 30.3281 5.32812 30.3281Z" fill="#573DB8"/>
<path d="M19.3906 36.5781C19.8221 36.5781 20.1719 36.2283 20.1719 35.7969C20.1719 35.3654 19.8221 35.0156 19.3906 35.0156C18.9592 35.0156 18.6094 35.3654 18.6094 35.7969C18.6094 36.2283 18.9592 36.5781 19.3906 36.5781Z" fill="#573DB8"/>
<path d="M33.7338 10.2113C33.1917 7.38461 30.716 5.30867 27.7894 5.30867C26.8993 5.30867 26.0247 5.50359 25.2262 5.87703C23.6523 4.35727 21.3501 4.0368 19.4731 4.90234C17.9907 2.45516 15.3014 0.914062 12.4083 0.914062C7.46633 0.914062 3.58258 5.26703 4.22492 10.228C2.05586 11.192 0.640625 13.3363 0.640625 15.7579C0.640625 19.0962 3.35672 21.8126 6.69531 21.8126H16.2657V26.422H14.7032C14.2718 26.422 13.922 26.7719 13.922 27.2032C13.922 27.6345 14.2718 27.9845 14.7032 27.9845H16.2657V28.7657H7.67195C7.24055 28.7657 6.8907 29.1156 6.8907 29.547C6.8907 29.9783 7.24055 30.3282 7.67195 30.3282H16.2658V31.8907C16.2658 32.3222 16.6156 32.672 17.047 32.672C17.4784 32.672 17.8283 32.3222 17.8283 31.8907V30.3282H18.6095V31.1095C18.6095 31.5408 18.9594 31.8907 19.3908 31.8907C19.8222 31.8907 20.172 31.5408 20.172 31.1095V30.3282H24.8595C25.2909 30.3282 25.6408 29.9783 25.6408 29.547C25.6408 29.1156 25.2909 28.7657 24.8595 28.7657H20.172V27.9845H30.3284C30.7598 27.9845 31.1097 27.6345 31.1097 27.2032C31.1097 26.7719 30.7598 26.422 30.3284 26.422H20.1721V21.8127H31.305C34.6436 21.8127 37.3597 19.0962 37.3597 15.758C37.3597 13.3405 35.9212 11.1688 33.7338 10.2113ZM18.6096 28.7657H17.8284V27.9845H18.6096V28.7657ZM18.6096 26.422H17.8284V21.8127H18.6096V26.422ZM15.4846 16.2657V13.8807L17.7872 11.5781H20.1721V16.2656L15.4846 16.2657ZM18.6096 17.8282V20.2502H17.8284V17.8282H18.6096ZM31.305 20.2502H20.1721V17.8282H20.9534C21.3848 17.8282 21.7346 17.4784 21.7346 17.047V10.797C21.7346 10.3655 21.3848 10.0157 20.9534 10.0157H17.4637C17.2562 10.0157 17.0578 10.0977 16.9113 10.2442L14.151 13.0045C14.0045 13.151 13.9221 13.3498 13.9221 13.5569V17.047C13.9221 17.4784 14.272 17.8282 14.7034 17.8282H16.2659V20.2502H6.69547C4.2182 20.2502 2.20328 18.2348 2.20328 15.758C2.20328 13.7895 3.46328 12.068 5.33859 11.4748C5.72195 11.353 5.95086 10.9605 5.86695 10.5669C4.97352 6.37258 8.18891 2.47664 12.4084 2.47664C14.9811 2.47664 17.3554 3.98039 18.457 6.30742C18.6627 6.74078 19.2071 6.88914 19.6038 6.61867C21.1335 5.575 23.248 5.84773 24.4516 7.34078C24.6973 7.64555 25.1302 7.72109 25.4648 7.51852C26.1637 7.09469 26.9673 6.87117 27.7895 6.87117C30.081 6.87117 31.9998 8.58625 32.2531 10.8605C32.2863 11.1604 32.489 11.4137 32.7738 11.5125C34.5823 12.1381 35.7973 13.8445 35.7973 15.7579C35.7972 18.2348 33.7819 20.2502 31.305 20.2502Z" fill="#573DB8"/>
<path d="M22.5156 10.7969H24.0781V12.3594H22.5156V10.7969Z" fill="#573DB8"/>
<path d="M22.5156 13.1406H24.0781V14.7031H22.5156V13.1406Z" fill="#573DB8"/>
<path d="M22.5156 15.4844H24.0781V17.0469H22.5156V15.4844Z" fill="#573DB8"/>
<path d="M11.5781 10.7969H13.1406V12.3594H11.5781V10.7969Z" fill="#573DB8"/>
<path d="M11.5781 13.1406H13.1406V14.7031H11.5781V13.1406Z" fill="#573DB8"/>
<path d="M11.5781 15.4844H13.1406V17.0469H11.5781V15.4844Z" fill="#573DB8"/>
<path d="M32.6719 5.32812C33.9643 5.32812 35.0156 4.27641 35.0156 2.98438C35.0156 1.69195 33.9643 0.640625 32.6719 0.640625C31.3795 0.640625 30.3281 1.69195 30.3281 2.98438C30.3281 4.27641 31.3795 5.32812 32.6719 5.32812ZM32.6719 2.20312C33.1026 2.20312 33.4531 2.55367 33.4531 2.98438C33.4531 3.41508 33.1026 3.76562 32.6719 3.76562C32.2412 3.76562 31.8906 3.41508 31.8906 2.98438C31.8906 2.55367 32.2412 2.20312 32.6719 2.20312Z" fill="#573DB8"/>
<path d="M32.2812 30.3281C30.7737 30.3281 29.5469 31.5545 29.5469 33.0625C29.5469 34.5702 30.7737 35.797 32.2812 35.797C33.7888 35.797 35.0156 34.5702 35.0156 33.0625C35.0156 31.5545 33.7888 30.3281 32.2812 30.3281ZM32.2812 34.2345C31.6351 34.2345 31.1094 33.7088 31.1094 33.0625C31.1094 32.4163 31.6351 31.8906 32.2812 31.8906C32.9274 31.8906 33.4531 32.4163 33.4531 33.0625C33.4531 33.7088 32.9274 34.2345 32.2812 34.2345Z" fill="#573DB8"/>
<path d="M4.15625 31.8906C2.64867 31.8906 1.42188 33.1171 1.42188 34.6251C1.42188 36.1327 2.64867 37.3595 4.15625 37.3595C5.66383 37.3595 6.89062 36.1327 6.89062 34.6251C6.89062 33.1171 5.66383 31.8906 4.15625 31.8906ZM4.15625 35.797C3.51008 35.797 2.98438 35.2713 2.98438 34.6251C2.98438 33.9789 3.51008 33.4531 4.15625 33.4531C4.80242 33.4531 5.32812 33.9788 5.32812 34.6251C5.32812 35.2713 4.8025 35.797 4.15625 35.797Z" fill="#573DB8"/>
</svg>
