<svg width="28" height="28" viewBox="0 0 28 28" fill="none" xmlns="http://www.w3.org/2000/svg">
<path fill-rule="evenodd" clip-rule="evenodd" d="M22.9778 7.69198L6.22085 21.7527L5.01562 20.3164L21.7726 6.25564L22.9778 7.69198Z" fill="#07000E"/>
<path fill-rule="evenodd" clip-rule="evenodd" d="M21.052 6.85748C17.6742 9.69177 17.4066 14.9782 20.0644 18.1457L20.667 18.8639L22.1033 17.6587L21.5007 16.9405C19.4828 14.5356 19.703 10.437 22.2572 8.29381L22.975 7.69152L21.7698 6.25519L21.052 6.85748Z" fill="#07000E"/>
<path fill-rule="evenodd" clip-rule="evenodd" d="M22.2581 8.29175C18.8803 11.126 13.6277 10.4716 10.9698 7.3041L10.3672 6.58594L11.8035 5.38071L12.4061 6.09888C14.4241 8.50385 18.4987 8.99863 21.0529 6.85542L21.7707 6.25312L22.9759 7.68946L22.2581 8.29175Z" fill="#07000E"/>
</svg>
