<svg width="163" height="32" viewBox="0 0 163 32" fill="none" xmlns="http://www.w3.org/2000/svg">
<path d="M18.8522 6.0132L9.42611 12.0264L18.8522 18.0396L9.42611 24.0528L0 18.0071L9.42611 11.9939L0 6.0132L9.42611 0L18.8522 6.0132ZM9.37735 25.9868L18.8035 19.9736L28.2296 25.9868L18.8035 32L9.37735 25.9868ZM18.8522 18.0071L28.2783 11.9939L18.8522 6.0132L28.2296 0L37.6557 6.0132L28.2296 12.0264L37.6557 18.0396L28.2296 24.0528L18.8522 18.0071Z" fill="#07000E"/>
<path d="M45.0469 6.01456H52.669C57.5283 6.01456 61.5426 8.82614 61.5426 15.2456V16.5945C61.5426 23.0628 57.7884 25.9719 52.8153 25.9719H45.0469V6.01456ZM49.3049 9.63874V22.3315H52.5715C55.3343 22.3315 57.187 20.5275 57.187 16.5133V15.4569C57.187 11.4427 55.2368 9.63874 52.4252 9.63874H49.3049ZM63.8016 9.83376H67.2145L67.767 13.5879C68.4171 11.0364 70.0748 9.67124 73.0814 9.67124H74.1378V13.978H72.3826C68.9209 13.978 68.0758 15.1806 68.0758 18.5935V26.0207H63.8666V9.83376H63.8016ZM74.9829 18.2522V17.7972C74.9829 12.3853 78.4445 9.42746 83.1576 9.42746C87.9682 9.42746 91.3323 12.3853 91.3323 17.7972V18.2522C91.3323 23.5666 88.0657 26.427 83.1576 26.427C77.9407 26.3782 74.9829 23.5829 74.9829 18.2522ZM87.0255 18.2035V17.7972C87.0255 14.7906 85.5141 12.9866 83.1088 12.9866C80.7523 12.9866 79.1921 14.6443 79.1921 17.7972V18.2035C79.1921 21.1126 80.7036 22.7703 83.1088 22.7703C85.5141 22.7215 87.0255 21.1126 87.0255 18.2035ZM93.5425 9.83376H97.053L97.4593 12.8891C98.3044 10.8414 100.108 9.42746 102.774 9.42746C106.885 9.42746 109.599 12.3853 109.599 17.8622V18.3173C109.599 23.6316 106.593 26.4432 102.774 26.4432C100.222 26.4432 98.4669 25.2893 97.6055 23.4366V31.6113H93.4938L93.5425 9.83376ZM105.325 18.2035V17.8459C105.325 14.6281 103.667 13.0354 101.457 13.0354C99.1007 13.0354 97.5405 14.8393 97.5405 17.8459V18.1547C97.5405 21.0151 99.052 22.819 101.408 22.819C103.83 22.7703 105.325 21.2263 105.325 18.2035ZM115.824 23.0303L115.466 25.9881H111.858V4.42188H115.97V12.6941C116.88 10.5813 118.684 9.42746 121.236 9.42746C125.104 9.47622 127.964 12.1415 127.964 17.5047V18.0085C127.964 23.3716 125.25 26.4432 121.138 26.4432C118.424 26.3782 116.669 25.1268 115.824 23.0303ZM123.641 18.0085V17.6022C123.641 14.6443 122.032 12.9866 119.773 12.9866C117.465 12.9866 115.856 14.8393 115.856 17.6509V18.0085C115.856 21.0151 117.417 22.7703 119.724 22.7703C122.195 22.7703 123.641 21.2263 123.641 18.0085ZM129.768 18.2522V17.7972C129.768 12.3853 133.23 9.42746 137.943 9.42746C142.753 9.42746 146.117 12.3853 146.117 17.7972V18.2522C146.117 23.5666 142.802 26.427 137.943 26.427C132.726 26.3782 129.768 23.5829 129.768 18.2522ZM141.843 18.2035V17.7972C141.843 14.7906 140.332 12.9866 137.927 12.9866C135.57 12.9866 134.01 14.6443 134.01 17.7972V18.2035C134.01 21.1126 135.521 22.7703 137.927 22.7703C140.348 22.7215 141.843 21.1126 141.843 18.2035ZM151.627 17.6022L145.955 9.83376H150.814L154.081 14.6931L157.396 9.83376H162.207L156.454 17.5534L162.516 25.9881H157.754L154.048 20.625L150.44 25.9881H145.467L151.627 17.6022Z" fill="#07000E"/>
</svg>
